<svg version="1.1" preserveAspectRatio="none" xmlns="http://www.w3.org/2000/svg" width="500" height="500" viewBox="0 0 500 500"><rect width="100%" height="100%" fill="#121B31" fill-opacity="1"/><svg viewBox="233.6856 273.1763 365.0595 101" width="333" height="92.13018699691419" x="83.5px" y="203.9349px" xmlns="http://www.w3.org/2000/svg" xmlns:xlink="http://www.w3.org/1999/xlink" preserveAspectRatio="none"><defs></defs><style>.companyName {fill:#F7F7F7;fill-opacity:1;}.icon3 {fill:#D0E156;fill-opacity:1;}.icon3-str {stroke:#D0E156;stroke-opacity:1;}.shapeStroke-str {stroke:#F7F7F7;stroke-opacity:1;}</style><g opacity="1" transform="rotate(0 233.6856 273.1763)">
<svg width="365.0595" height="80" x="233.6856" y="273.1763" version="1.1" preserveAspectRatio="none" viewBox="4.16 -26.8 124.12 27.2">
  <g transform="matrix(1 0 0 1 0 0)" class="companyName"><path id="id-D6z1nYkh5" d="M24.44-26.40L24.44 0L21.96 0L7.96-20.72L6-24.24L5.96-24.24L6.08-20.92L6.08 0L4.16 0L4.16-26.40L6.68-26.40L20.64-5.72L22.64-2.16L22.56-5.48L22.56-26.40L24.44-26.40Z M43.24-26.80Q46.96-26.80 49.70-25.14Q52.44-23.48 53.92-20.42Q55.40-17.36 55.40-13.20L55.40-13.20Q55.40-9.04 53.92-5.98Q52.44-2.92 49.70-1.26Q46.96 0.40 43.24 0.40L43.24 0.40Q39.52 0.40 36.78-1.26Q34.04-2.92 32.56-5.98Q31.08-9.04 31.08-13.20L31.08-13.20Q31.08-17.36 32.56-20.42Q34.04-23.48 36.78-25.14Q39.52-26.80 43.24-26.80L43.24-26.80ZM43.24-24.96Q40.16-24.96 37.90-23.54Q35.64-22.12 34.42-19.46Q33.20-16.80 33.20-13.20L33.20-13.20Q33.20-9.60 34.42-6.94Q35.64-4.28 37.90-2.86Q40.16-1.44 43.24-1.44L43.24-1.44Q46.32-1.44 48.60-2.86Q50.88-4.28 52.10-6.94Q53.32-9.60 53.32-13.20L53.32-13.20Q53.32-16.80 52.10-19.46Q50.88-22.12 48.60-23.54Q46.32-24.96 43.24-24.96L43.24-24.96Z M80.88-26.40L70.72 0L68.36 0L58.16-26.40L60.32-26.40L68.12-5.96L69.52-1.88L70.92-5.96L78.76-26.40L80.88-26.40Z M87.96-1.84L104.64-1.84L104.64 0L85.96 0L85.96-26.40L104.00-26.40L104.00-24.56L87.96-24.56L87.96-14.36L100.64-14.36L100.64-12.48L87.96-12.48L87.96-1.84Z M112.44-1.84L128.28-1.84L128.28 0L110.44 0L110.44-26.40L112.44-26.40L112.44-1.84Z"/></g>
</svg>
</g><g opacity="1" transform="rotate(0 233.6856 371.1763)">
<svg width="365.0595" height="3" x="233.6856" y="371.1763" version="1.1" preserveAspectRatio="none" viewBox="0 0 365.0595 3">
  <defs><rect x="0" y="0" width="365.0595" height="3" rx="0px" ry="0px" id="id-tBXipXk0b1700453622183"></rect></defs><use class="icon3 shapeStroke-str" style="stroke-width:0;" xlink:href="#id-tBXipXk0b1700453622183"></use>
</svg>
</g></svg></svg>